<?xml version="1.0" encoding="UTF-8" standalone="no"?>
<!-- Created with Inkscape (http://www.inkscape.org/) -->

<svg
   xmlns:dc="http://purl.org/dc/elements/1.1/"
   xmlns:cc="http://creativecommons.org/ns#"
   xmlns:rdf="http://www.w3.org/1999/02/22-rdf-syntax-ns#"
   xmlns:svg="http://www.w3.org/2000/svg"
   xmlns="http://www.w3.org/2000/svg"
   xmlns:sodipodi="http://sodipodi.sourceforge.net/DTD/sodipodi-0.dtd"
   xmlns:inkscape="http://www.inkscape.org/namespaces/inkscape"
   version="1.1"
   id="svg2"
   width="512"
   height="512"
   viewBox="0 0 512.00001 511.99999"
   sodipodi:docname="favicon.svg"
   inkscape:version="0.92.3 (2405546, 2018-03-11)"
   inkscape:export-filename="favicon.png"
   inkscape:export-xdpi="96"
   inkscape:export-ydpi="96">
  <metadata
     id="metadata8">
    <rdf:RDF>
      <cc:Work
         rdf:about="">
        <dc:format>image/svg+xml</dc:format>
        <dc:type
           rdf:resource="http://purl.org/dc/dcmitype/StillImage" />
        <dc:title />
      </cc:Work>
    </rdf:RDF>
  </metadata>
  <defs
     id="defs6" />
  <sodipodi:namedview
     pagecolor="#ffffff"
     bordercolor="#666666"
     borderopacity="1"
     objecttolerance="10"
     gridtolerance="10"
     guidetolerance="10"
     inkscape:pageopacity="0"
     inkscape:pageshadow="2"
     inkscape:window-width="1920"
     inkscape:window-height="1016"
     id="namedview4"
     showgrid="false"
     inkscape:zoom="0.51176855"
     inkscape:cx="-411.54434"
     inkscape:cy="212.37946"
     inkscape:window-x="1920"
     inkscape:window-y="27"
     inkscape:window-maximized="1"
     inkscape:current-layer="svg2" />
  <path
     style="fill:none;stroke:#d40000;stroke-width:21.56738663;stroke-linecap:round;stroke-linejoin:round;stroke-miterlimit:4;stroke-dasharray:none;stroke-opacity:1"
     d="M 274.30485,69.662269 C 249.94796,35.468771 111.41259,62.345939 103.76337,89.394318 96.11416,116.4427 256.29729,179.94687 258.64476,213.80925 c 14.20557,-3.34708 29.21543,10.43047 38.29992,2.18995 9.0845,-8.24053 8.13981,-17.28211 -5.79964,-20.39197 -13.93945,-3.10985 -17.47631,10.83064 -32.50028,18.20202 -15.02396,7.37138 -158.5142,66.55622 -162.305963,45.87008 -5.641543,-30.77768 121.599823,-36.07505 186.193153,-50.61747 33.11062,-7.45446 86.20497,-39.32981 86.20497,-39.32981 106.98769,-66.92378 -1.78207,-170.7362115 -2.81887,-157.856552 -2.1557,26.779242 -14.15248,464.720982 19.37972,489.249692"
     id="path817"
     inkscape:connector-curvature="0"
     sodipodi:nodetypes="ccczzzsscsc" />
</svg>
