<svg viewBox="0 0 100 100" xmlns="http://www.w3.org/2000/svg">
  <g>
    <rect x="5" y="0" width="10" height="5"/>
    <rect x="85" y="0" width="10" height="5"/>
    <rect x="5" y="15" width="10" height="10"/>
    <rect x="85" y="15" width="10" height="10"/>
    <rect x="5" y="35" width="10" height="10"/>
    <rect x="85" y="35" width="10" height="10"/>
    <rect x="5" y="55" width="10" height="10"/>
    <rect x="85" y="55" width="10" height="10"/>
    <rect x="5" y="75" width="10" height="10"/>
    <rect x="85" y="75" width="10" height="10"/>
    <rect x="5" y="95" width="10" height="5"/>
    <rect x="85" y="95" width="10" height="5"/>

    <rect x="20" y="0" rx="2" ry="2" width="60" height="25"/>
    <rect x="20" y="30" rx="2" ry="2" width="60" height="40"/>
    <rect x="20" y="75" rx="2" ry="2" width="60" height="40"/>
  </g>
</svg>
